<?xml version="1.0" standalone="no"?>
<!DOCTYPE svg PUBLIC "-//W3C//DTD SVG 20010904//EN"
 "http://www.w3.org/TR/2001/REC-SVG-20010904/DTD/svg10.dtd">
<svg version="1.0" xmlns="http://www.w3.org/2000/svg"
 width="316.000000pt" height="52.000000pt" viewBox="0 0 316.000000 52.000000"
 preserveAspectRatio="xMidYMid meet">

<g transform="translate(0.000000,52.000000) scale(0.100000,-0.100000)"
fill="#000000" stroke="none">
<path d="M1396 308 c-10 -62 -20 -123 -23 -135 -5 -21 -1 -23 29 -23 33 0 36
2 44 43 l9 42 54 5 c69 7 101 40 101 105 0 61 -22 75 -121 75 l-76 0 -17 -112z
m125 52 c37 -20 10 -70 -37 -70 -21 0 -24 3 -18 28 12 58 17 62 55 42z"/>
<path d="M1640 303 c-22 -20 -33 -40 -37 -70 -5 -36 -2 -45 21 -68 23 -23 33
-26 64 -21 20 4 56 6 79 6 l41 -1 12 73 c6 40 12 80 13 88 1 10 -9 16 -30 18
-22 2 -33 -1 -33 -9 0 -10 -3 -10 -12 -1 -22 22 -85 14 -118 -15z m118 -54 c4
-34 -29 -63 -63 -55 -19 5 -25 13 -25 34 0 37 18 54 55 50 24 -2 31 -8 33 -29z"/>
<path d="M1862 318 c3 -7 15 -44 28 -82 24 -73 25 -68 -18 -134 -14 -21 -13
-22 20 -22 33 0 39 6 112 109 95 137 97 141 57 141 -26 0 -36 -8 -65 -52 l-35
-51 -11 27 c-5 15 -13 38 -16 51 -5 21 -12 25 -41 25 -24 0 -34 -4 -31 -12z"/>
<path d="M470 255 l0 -65 39 0 c64 0 99 56 67 105 -14 20 -25 25 -61 25 l-45
0 0 -65z m78 33 c18 -18 14 -56 -7 -68 -34 -18 -41 -11 -41 35 0 37 3 45 18
45 10 0 23 -5 30 -12z"/>
<path d="M610 310 c0 -5 5 -10 10 -10 6 0 10 5 10 10 0 6 -4 10 -10 10 -5 0
-10 -4 -10 -10z"/>
<path d="M840 255 c0 -37 4 -65 10 -65 6 0 10 9 10 20 0 11 4 20 10 20 5 0 14
-9 20 -20 6 -11 18 -20 26 -20 12 0 11 6 -6 31 -21 29 -21 31 -5 50 22 23 8
25 -23 3 -21 -15 -22 -14 -22 15 0 17 -4 31 -10 31 -6 0 -10 -28 -10 -65z"/>
<path d="M942 290 c-7 -12 -8 -20 -2 -20 5 0 10 -16 10 -35 0 -23 6 -38 15
-42 21 -7 32 4 17 19 -16 16 -15 55 0 60 9 3 8 9 -4 21 -21 21 -21 21 -36 -3z"/>
<path d="M610 240 c0 -27 5 -50 10 -50 6 0 10 23 10 50 0 28 -4 50 -10 50 -5
0 -10 -22 -10 -50z"/>
<path d="M654 281 c-2 -2 -4 -24 -4 -48 0 -32 4 -43 15 -43 10 0 15 10 15 34
0 21 6 36 15 40 24 9 17 24 -11 22 -14 0 -28 -3 -30 -5z"/>
<path d="M736 274 c-19 -18 -21 -55 -4 -72 17 -17 53 -15 68 3 11 13 8 14 -18
9 -17 -4 -32 -1 -36 5 -5 7 5 11 28 11 28 0 36 4 36 18 0 39 -45 55 -74 26z
m49 -14 c4 -6 -5 -10 -20 -10 -15 0 -24 4 -20 10 3 6 12 10 20 10 8 0 17 -4
20 -10z"/>
<path d="M1060 280 c0 -5 9 -10 21 -10 19 0 19 -1 -5 -33 -15 -19 -26 -37 -26
-40 0 -4 20 -7 45 -7 25 0 45 5 45 10 0 6 -11 10 -26 10 l-25 0 25 33 c14 19
23 37 19 40 -10 11 -73 8 -73 -3z"/>
<path d="M1162 243 l3 -48 43 -2 43 -2 -3 46 c-4 60 -28 72 -28 14 0 -34 -3
-41 -20 -41 -17 0 -20 7 -20 40 0 22 -5 40 -11 40 -6 0 -9 -19 -7 -47z"/>
</g>
</svg>
